<mxfile host="app.diagrams.net" modified="2022-09-13T07:17:27.140Z" agent="5.0 (Windows NT 10.0; Win64; x64) AppleWebKit/537.36 (KHTML, like Gecko) Chrome/105.0.0.0 Safari/537.36" etag="U9lue1ghhcaH-ESOQPxn" version="20.1.2" type="github">
  <diagram id="umuWkSU3yIFX7GFmM5Sn" name="Page-1">
    <mxGraphModel dx="1550" dy="835" grid="0" gridSize="10" guides="1" tooltips="1" connect="1" arrows="1" fold="1" page="1" pageScale="1" pageWidth="850" pageHeight="1100" math="0" shadow="0">
      <root>
        <mxCell id="0" />
        <mxCell id="1" parent="0" />
        <mxCell id="dy6qlffycjO_kxXFmytK-1" value="PC" style="rounded=0;whiteSpace=wrap;html=1;" vertex="1" parent="1">
          <mxGeometry x="46" y="160" width="70" height="30" as="geometry" />
        </mxCell>
        <mxCell id="dy6qlffycjO_kxXFmytK-2" value="协议收发" style="rounded=0;whiteSpace=wrap;html=1;" vertex="1" parent="1">
          <mxGeometry x="206" y="160" width="70" height="30" as="geometry" />
        </mxCell>
        <mxCell id="dy6qlffycjO_kxXFmytK-3" value="协议处理" style="rounded=0;whiteSpace=wrap;html=1;" vertex="1" parent="1">
          <mxGeometry x="366" y="160" width="70" height="30" as="geometry" />
        </mxCell>
        <mxCell id="dy6qlffycjO_kxXFmytK-4" value="系统状态监控" style="rounded=0;whiteSpace=wrap;html=1;" vertex="1" parent="1">
          <mxGeometry x="516" y="160" width="90" height="30" as="geometry" />
        </mxCell>
        <mxCell id="dy6qlffycjO_kxXFmytK-5" value="" style="endArrow=none;dashed=1;html=1;dashPattern=1 3;strokeWidth=2;rounded=0;entryX=0.5;entryY=1;entryDx=0;entryDy=0;" edge="1" parent="1" target="dy6qlffycjO_kxXFmytK-1">
          <mxGeometry width="50" height="50" relative="1" as="geometry">
            <mxPoint x="81" y="490" as="sourcePoint" />
            <mxPoint x="416" y="390" as="targetPoint" />
          </mxGeometry>
        </mxCell>
        <mxCell id="dy6qlffycjO_kxXFmytK-6" value="" style="endArrow=none;dashed=1;html=1;dashPattern=1 3;strokeWidth=2;rounded=0;entryX=0.5;entryY=1;entryDx=0;entryDy=0;" edge="1" parent="1">
          <mxGeometry width="50" height="50" relative="1" as="geometry">
            <mxPoint x="560.5" y="490" as="sourcePoint" />
            <mxPoint x="560.5" y="190" as="targetPoint" />
          </mxGeometry>
        </mxCell>
        <mxCell id="dy6qlffycjO_kxXFmytK-7" value="" style="endArrow=none;dashed=1;html=1;dashPattern=1 3;strokeWidth=2;rounded=0;entryX=0.5;entryY=1;entryDx=0;entryDy=0;" edge="1" parent="1">
          <mxGeometry width="50" height="50" relative="1" as="geometry">
            <mxPoint x="400.5" y="490" as="sourcePoint" />
            <mxPoint x="400.5" y="190" as="targetPoint" />
          </mxGeometry>
        </mxCell>
        <mxCell id="dy6qlffycjO_kxXFmytK-8" value="" style="endArrow=none;dashed=1;html=1;dashPattern=1 3;strokeWidth=2;rounded=0;entryX=0.5;entryY=1;entryDx=0;entryDy=0;" edge="1" parent="1">
          <mxGeometry width="50" height="50" relative="1" as="geometry">
            <mxPoint x="240.5" y="490" as="sourcePoint" />
            <mxPoint x="240.5" y="190" as="targetPoint" />
          </mxGeometry>
        </mxCell>
        <mxCell id="dy6qlffycjO_kxXFmytK-9" value="" style="endArrow=classic;html=1;rounded=0;" edge="1" parent="1">
          <mxGeometry width="50" height="50" relative="1" as="geometry">
            <mxPoint x="80" y="240" as="sourcePoint" />
            <mxPoint x="240" y="240" as="targetPoint" />
          </mxGeometry>
        </mxCell>
        <mxCell id="dy6qlffycjO_kxXFmytK-10" value="发送命令" style="text;html=1;align=center;verticalAlign=middle;resizable=0;points=[];autosize=1;strokeColor=none;fillColor=none;" vertex="1" parent="1">
          <mxGeometry x="129" y="220" width="70" height="30" as="geometry" />
        </mxCell>
        <mxCell id="dy6qlffycjO_kxXFmytK-11" value="" style="endArrow=classic;html=1;rounded=0;" edge="1" parent="1">
          <mxGeometry width="50" height="50" relative="1" as="geometry">
            <mxPoint x="246" y="240" as="sourcePoint" />
            <mxPoint x="246" y="290" as="targetPoint" />
            <Array as="points">
              <mxPoint x="266" y="240" />
              <mxPoint x="266" y="290" />
            </Array>
          </mxGeometry>
        </mxCell>
        <mxCell id="dy6qlffycjO_kxXFmytK-12" value="检查帧头&lt;br&gt;帧长，CRC" style="text;html=1;align=center;verticalAlign=middle;resizable=0;points=[];autosize=1;strokeColor=none;fillColor=none;" vertex="1" parent="1">
          <mxGeometry x="259" y="240" width="90" height="40" as="geometry" />
        </mxCell>
        <mxCell id="dy6qlffycjO_kxXFmytK-13" value="" style="endArrow=classic;html=1;rounded=0;" edge="1" parent="1">
          <mxGeometry width="50" height="50" relative="1" as="geometry">
            <mxPoint x="240" y="290" as="sourcePoint" />
            <mxPoint x="80" y="290" as="targetPoint" />
          </mxGeometry>
        </mxCell>
        <mxCell id="dy6qlffycjO_kxXFmytK-14" value="如果命令错误" style="text;html=1;align=center;verticalAlign=middle;resizable=0;points=[];autosize=1;strokeColor=none;fillColor=none;" vertex="1" parent="1">
          <mxGeometry x="118" y="267" width="100" height="30" as="geometry" />
        </mxCell>
        <mxCell id="dy6qlffycjO_kxXFmytK-15" value="发送错误码，&lt;br&gt;并通过RTT输出log" style="text;html=1;align=center;verticalAlign=middle;resizable=0;points=[];autosize=1;strokeColor=none;fillColor=none;" vertex="1" parent="1">
          <mxGeometry x="108" y="290" width="120" height="40" as="geometry" />
        </mxCell>
        <mxCell id="dy6qlffycjO_kxXFmytK-16" value="" style="endArrow=classic;html=1;rounded=0;" edge="1" parent="1">
          <mxGeometry width="50" height="50" relative="1" as="geometry">
            <mxPoint x="250" y="340" as="sourcePoint" />
            <mxPoint x="400" y="340" as="targetPoint" />
          </mxGeometry>
        </mxCell>
        <mxCell id="dy6qlffycjO_kxXFmytK-17" value="命令正确" style="text;html=1;align=center;verticalAlign=middle;resizable=0;points=[];autosize=1;strokeColor=none;fillColor=none;" vertex="1" parent="1">
          <mxGeometry x="290" y="315" width="70" height="30" as="geometry" />
        </mxCell>
        <mxCell id="dy6qlffycjO_kxXFmytK-18" value="" style="endArrow=classic;html=1;rounded=0;" edge="1" parent="1">
          <mxGeometry width="50" height="50" relative="1" as="geometry">
            <mxPoint x="406" y="340" as="sourcePoint" />
            <mxPoint x="406" y="390" as="targetPoint" />
            <Array as="points">
              <mxPoint x="426" y="340" />
              <mxPoint x="426" y="390" />
            </Array>
          </mxGeometry>
        </mxCell>
        <mxCell id="dy6qlffycjO_kxXFmytK-19" value="执行命令" style="text;html=1;align=center;verticalAlign=middle;resizable=0;points=[];autosize=1;strokeColor=none;fillColor=none;" vertex="1" parent="1">
          <mxGeometry x="421" y="348" width="70" height="30" as="geometry" />
        </mxCell>
        <mxCell id="dy6qlffycjO_kxXFmytK-20" value="" style="endArrow=classic;html=1;rounded=0;" edge="1" parent="1">
          <mxGeometry width="50" height="50" relative="1" as="geometry">
            <mxPoint x="566" y="210" as="sourcePoint" />
            <mxPoint x="566" y="240" as="targetPoint" />
            <Array as="points">
              <mxPoint x="586" y="210" />
              <mxPoint x="586" y="240" />
            </Array>
          </mxGeometry>
        </mxCell>
        <mxCell id="dy6qlffycjO_kxXFmytK-21" value="监控系统状态" style="text;html=1;align=center;verticalAlign=middle;resizable=0;points=[];autosize=1;strokeColor=none;fillColor=none;" vertex="1" parent="1">
          <mxGeometry x="574" y="210" width="100" height="30" as="geometry" />
        </mxCell>
        <mxCell id="dy6qlffycjO_kxXFmytK-22" value="" style="endArrow=classic;html=1;rounded=0;" edge="1" parent="1">
          <mxGeometry width="50" height="50" relative="1" as="geometry">
            <mxPoint x="565" y="315" as="sourcePoint" />
            <mxPoint x="565" y="345" as="targetPoint" />
            <Array as="points">
              <mxPoint x="585" y="315" />
              <mxPoint x="585" y="345" />
            </Array>
          </mxGeometry>
        </mxCell>
        <mxCell id="dy6qlffycjO_kxXFmytK-23" value="监控系统状态" style="text;html=1;align=center;verticalAlign=middle;resizable=0;points=[];autosize=1;strokeColor=none;fillColor=none;" vertex="1" parent="1">
          <mxGeometry x="573" y="315" width="100" height="30" as="geometry" />
        </mxCell>
        <mxCell id="dy6qlffycjO_kxXFmytK-24" value="" style="endArrow=classic;html=1;rounded=0;" edge="1" parent="1">
          <mxGeometry width="50" height="50" relative="1" as="geometry">
            <mxPoint x="565" y="420" as="sourcePoint" />
            <mxPoint x="565" y="450" as="targetPoint" />
            <Array as="points">
              <mxPoint x="585" y="420" />
              <mxPoint x="585" y="450" />
            </Array>
          </mxGeometry>
        </mxCell>
        <mxCell id="dy6qlffycjO_kxXFmytK-25" value="监控系统状态" style="text;html=1;align=center;verticalAlign=middle;resizable=0;points=[];autosize=1;strokeColor=none;fillColor=none;" vertex="1" parent="1">
          <mxGeometry x="573" y="420" width="100" height="30" as="geometry" />
        </mxCell>
        <mxCell id="dy6qlffycjO_kxXFmytK-26" value="" style="endArrow=classic;html=1;rounded=0;" edge="1" parent="1">
          <mxGeometry width="50" height="50" relative="1" as="geometry">
            <mxPoint x="394" y="391" as="sourcePoint" />
            <mxPoint x="244" y="391" as="targetPoint" />
          </mxGeometry>
        </mxCell>
        <mxCell id="dy6qlffycjO_kxXFmytK-27" value="命令执行完成" style="text;html=1;align=center;verticalAlign=middle;resizable=0;points=[];autosize=1;strokeColor=none;fillColor=none;" vertex="1" parent="1">
          <mxGeometry x="272" y="367" width="100" height="30" as="geometry" />
        </mxCell>
        <mxCell id="dy6qlffycjO_kxXFmytK-28" value="返回命令执行结果" style="text;html=1;align=center;verticalAlign=middle;resizable=0;points=[];autosize=1;strokeColor=none;fillColor=none;" vertex="1" parent="1">
          <mxGeometry x="264" y="388" width="120" height="30" as="geometry" />
        </mxCell>
        <mxCell id="dy6qlffycjO_kxXFmytK-29" value="" style="endArrow=classic;html=1;rounded=0;" edge="1" parent="1">
          <mxGeometry width="50" height="50" relative="1" as="geometry">
            <mxPoint x="234" y="420" as="sourcePoint" />
            <mxPoint x="84" y="420" as="targetPoint" />
          </mxGeometry>
        </mxCell>
        <mxCell id="dy6qlffycjO_kxXFmytK-30" value="发送命令结果" style="text;html=1;align=center;verticalAlign=middle;resizable=0;points=[];autosize=1;strokeColor=none;fillColor=none;" vertex="1" parent="1">
          <mxGeometry x="109" y="395" width="100" height="30" as="geometry" />
        </mxCell>
      </root>
    </mxGraphModel>
  </diagram>
</mxfile>
